<?xml version="1.0" standalone="no"?>
<!DOCTYPE svg PUBLIC "-//W3C//DTD SVG 20010904//EN"
 "http://www.w3.org/TR/2001/REC-SVG-20010904/DTD/svg10.dtd">
<svg version="1.0" xmlns="http://www.w3.org/2000/svg"
 width="225.000000pt" height="225.000000pt" viewBox="0 0 225.000000 225.000000"
 preserveAspectRatio="xMidYMid meet">

<g transform="translate(0.000000,225.000000) scale(0.100000,-0.100000)"
fill="#000000" stroke="none">
<path d="M0 1125 l0 -1125 1125 0 1125 0 0 1125 0 1125 -1125 0 -1125 0 0
-1125z m1515 1015 c3 -10 1 -45 -4 -75 -28 -150 -166 -284 -326 -318 -79 -16
-89 -8 -81 60 18 151 163 296 339 339 29 7 55 13 59 13 4 1 9 -8 13 -19z m96
-416 c86 -25 188 -84 256 -148 35 -32 63 -63 63 -70 0 -6 -22 -19 -49 -29 -66
-23 -144 -95 -178 -165 -25 -51 -28 -67 -28 -162 0 -93 3 -112 26 -161 43 -91
132 -177 203 -195 14 -3 26 -10 26 -15 0 -19 -74 -156 -128 -238 -112 -170
-223 -261 -319 -261 -27 0 -79 14 -136 37 -84 34 -100 37 -187 37 -85 0 -103
-4 -170 -33 -41 -18 -99 -35 -127 -38 -77 -8 -163 36 -263 136 -132 131 -232
297 -286 477 -24 77 -27 107 -28 219 0 96 4 147 18 195 49 180 151 306 306
383 61 30 72 32 170 32 98 0 111 -3 200 -39 63 -25 117 -40 161 -43 61 -5 73
-2 150 33 152 68 217 78 320 48z"/>
</g>
</svg>
